<svg width="155" height="52" viewBox="0 0 155 52" fill="none" xmlns="http://www.w3.org/2000/svg">
<path d="M40.9 40.5594C38.1 40.5594 35.8 39.5594 34 37.5594L36.525 35.0594C37.7583 36.4927 39.3 37.2094 41.15 37.2094C42.1333 37.2094 42.8833 37.001 43.4 36.5844C43.9167 36.1677 44.175 35.5927 44.175 34.8594C44.175 34.276 44 33.8094 43.65 33.4594C43.3167 33.1094 42.7333 32.876 41.9 32.7594L40.125 32.5094C36.4083 31.9927 34.55 30.1844 34.55 27.0844C34.55 26.001 34.825 25.0427 35.375 24.2094C35.925 23.376 36.7083 22.7344 37.725 22.2844C38.7583 21.8177 39.9667 21.5844 41.35 21.5844C44.0167 21.5844 46.1167 22.4594 47.65 24.2094L45.125 26.7094C44.6417 26.1427 44.075 25.7094 43.425 25.4094C42.7917 25.0927 42.025 24.9344 41.125 24.9344C40.2083 24.9344 39.5167 25.101 39.05 25.4344C38.5833 25.7677 38.35 26.2427 38.35 26.8594C38.35 27.4927 38.525 27.9677 38.875 28.2844C39.2417 28.5844 39.8417 28.801 40.675 28.9344L42.45 29.2344C44.3333 29.5677 45.725 30.1677 46.625 31.0344C47.525 31.901 47.975 33.101 47.975 34.6344C47.975 35.801 47.6917 36.8344 47.125 37.7344C46.575 38.6177 45.7667 39.3094 44.7 39.8094C43.6333 40.3094 42.3667 40.5594 40.9 40.5594ZM55.6127 40.2344C54.346 40.2344 53.3794 39.9094 52.7127 39.2594C52.0627 38.5927 51.7377 37.6427 51.7377 36.4094V29.3594H49.7627V26.4844H50.7627C51.2627 26.4844 51.6127 26.3677 51.8127 26.1344C52.0127 25.901 52.1127 25.5344 52.1127 25.0344V22.7594H55.4377V26.4844H58.1627V29.3594H55.4377V37.3594H57.9627V40.2344H55.6127ZM60.9486 40.2344V26.4844H64.6486V29.4094H64.7736C64.957 28.576 65.3403 27.8844 65.9236 27.3344C66.5236 26.7677 67.3236 26.4844 68.3236 26.4844H69.0236V29.9344H68.0236C66.8736 29.9344 66.0236 30.101 65.4736 30.4344C64.9236 30.751 64.6486 31.2927 64.6486 32.0594V40.2344H60.9486ZM74.4555 40.5594C73.0888 40.5594 72.0221 40.1927 71.2555 39.4594C70.5055 38.726 70.1305 37.751 70.1305 36.5344C70.1305 35.1177 70.6388 34.051 71.6555 33.3344C72.6888 32.6177 74.1555 32.2594 76.0555 32.2594H78.2805V31.3344C78.2805 29.8177 77.4888 29.0594 75.9055 29.0594C75.1888 29.0594 74.5888 29.2094 74.1055 29.5094C73.6388 29.8094 73.2305 30.2177 72.8805 30.7344L70.6805 28.7844C71.2471 27.9344 71.9638 27.2844 72.8305 26.8344C73.6971 26.3844 74.8055 26.1594 76.1555 26.1594C78.0555 26.1594 79.4971 26.5927 80.4805 27.4594C81.4805 28.3094 81.9805 29.5427 81.9805 31.1594V37.3594H83.2805V40.2344H81.2305C80.5305 40.2344 79.9471 40.0177 79.4805 39.5844C79.0305 39.151 78.7555 38.5677 78.6555 37.8344H78.5055C78.2888 38.7177 77.8221 39.3927 77.1055 39.8594C76.3888 40.326 75.5055 40.5594 74.4555 40.5594ZM75.7805 37.9844C76.5138 37.9844 77.1138 37.826 77.5805 37.5094C78.0471 37.176 78.2805 36.701 78.2805 36.0844V34.3594H76.3055C75.5055 34.3594 74.8971 34.501 74.4805 34.7844C74.0638 35.0677 73.8555 35.476 73.8555 36.0094V36.4094C73.8555 37.4594 74.4971 37.9844 75.7805 37.9844ZM90.3783 40.2344C89.1117 40.2344 88.145 39.9094 87.4783 39.2594C86.8283 38.5927 86.5033 37.6427 86.5033 36.4094V29.3594H84.5283V26.4844H85.5283C86.0283 26.4844 86.3783 26.3677 86.5783 26.1344C86.7783 25.901 86.8783 25.5344 86.8783 25.0344V22.7594H90.2033V26.4844H92.9283V29.3594H90.2033V37.3594H92.7283V40.2344H90.3783ZM101.764 40.5594C98.9643 40.5594 96.6643 39.5594 94.8643 37.5594L97.3893 35.0594C98.6226 36.4927 100.164 37.2094 102.014 37.2094C102.998 37.2094 103.748 37.001 104.264 36.5844C104.781 36.1677 105.039 35.5927 105.039 34.8594C105.039 34.276 104.864 33.8094 104.514 33.4594C104.181 33.1094 103.598 32.876 102.764 32.7594L100.989 32.5094C97.2726 31.9927 95.4143 30.1844 95.4143 27.0844C95.4143 26.001 95.6893 25.0427 96.2393 24.2094C96.7893 23.376 97.5726 22.7344 98.5893 22.2844C99.6226 21.8177 100.831 21.5844 102.214 21.5844C104.881 21.5844 106.981 22.4594 108.514 24.2094L105.989 26.7094C105.506 26.1427 104.939 25.7094 104.289 25.4094C103.656 25.0927 102.889 24.9344 101.989 24.9344C101.073 24.9344 100.381 25.101 99.9143 25.4344C99.4476 25.7677 99.2143 26.2427 99.2143 26.8594C99.2143 27.4927 99.3893 27.9677 99.7393 28.2844C100.106 28.5844 100.706 28.801 101.539 28.9344L103.314 29.2344C105.198 29.5677 106.589 30.1677 107.489 31.0344C108.389 31.901 108.839 33.101 108.839 34.6344C108.839 35.801 108.556 36.8344 107.989 37.7344C107.439 38.6177 106.631 39.3094 105.564 39.8094C104.498 40.3094 103.231 40.5594 101.764 40.5594ZM112.124 45.4844V42.6094H114.674L115.199 40.9094L110.324 26.4844H113.999L116.174 33.2344L117.099 37.0344H117.249L118.274 33.2344L120.399 26.4844H123.849L118.474 42.4844C118.107 43.5344 117.616 44.2927 116.999 44.7594C116.382 45.2427 115.507 45.4844 114.374 45.4844H112.124ZM125.89 40.2344V26.4844H129.59V28.7844H129.715C129.998 27.9844 130.448 27.351 131.065 26.8844C131.698 26.401 132.523 26.1594 133.54 26.1594C134.94 26.1594 136.015 26.6344 136.765 27.5844C137.515 28.5344 137.89 29.876 137.89 31.6094V40.2344H134.19V31.9094C134.19 30.976 134.023 30.2844 133.69 29.8344C133.373 29.3844 132.857 29.1594 132.14 29.1594C131.423 29.1594 130.815 29.3427 130.315 29.7094C129.832 30.076 129.59 30.5927 129.59 31.2594V40.2344H125.89ZM146.991 40.5594C144.958 40.5594 143.383 39.9177 142.266 38.6344C141.15 37.3344 140.591 35.576 140.591 33.3594C140.591 31.126 141.15 29.3677 142.266 28.0844C143.383 26.801 144.958 26.1594 146.991 26.1594C148.341 26.1594 149.483 26.476 150.416 27.1094C151.366 27.726 152.041 28.5927 152.441 29.7094L149.466 31.0344C149.316 30.451 149.033 29.9844 148.616 29.6344C148.2 29.2677 147.658 29.0844 146.991 29.0844C146.158 29.0844 145.525 29.351 145.091 29.8844C144.658 30.4177 144.441 31.151 144.441 32.0844V34.6344C144.441 35.5677 144.658 36.301 145.091 36.8344C145.525 37.3677 146.158 37.6344 146.991 37.6344C147.708 37.6344 148.275 37.451 148.691 37.0844C149.108 36.701 149.441 36.1844 149.691 35.5344L152.541 36.8094C152.091 38.0594 151.391 39.001 150.441 39.6344C149.508 40.251 148.358 40.5594 146.991 40.5594Z" fill="white"/>
<g filter="url(#filter0_f_1145_4)">
<path d="M14.7077 5.18978L5.67863 14.2188C4.46839 15.4291 4.46839 17.3912 5.67863 18.6015L14.8144 27.7373C16.0247 28.9475 17.9869 28.9475 19.1971 27.7373L28.2261 18.7083C29.4364 17.498 29.4364 15.5358 28.2261 14.3256L19.0903 5.18978C17.8801 3.97955 15.9179 3.97955 14.7077 5.18978Z" fill="#2EF2FF"/>
</g>
<path d="M2.40397 31.8864C1.86534 31.071 1.86534 29.7498 2.40397 28.9352L8.04326 20.4002C8.12784 20.2711 8.22895 20.1684 8.34061 20.0984C8.45228 20.0283 8.57224 19.9922 8.69343 19.9922C8.81462 19.9922 8.93459 20.0283 9.04625 20.0984C9.15792 20.1684 9.25902 20.2711 9.34361 20.4002L15.9223 30.3577C16.1808 30.7489 16.3264 31.2802 16.3264 31.8337V49.598C16.3264 50.8376 15.3361 51.4587 14.757 50.5815L2.40453 31.8856L2.40397 31.8864ZM27.2977 20.9249C27.1709 20.7313 27.0192 20.5774 26.8518 20.4723C26.6843 20.3672 26.5044 20.3131 26.3226 20.3131C26.1409 20.3131 25.961 20.3672 25.7935 20.4723C25.626 20.5774 25.4744 20.7313 25.3475 20.9249L19.0976 30.3849C18.8391 30.7761 18.6941 31.3074 18.6941 31.8609V49.5815C18.6941 50.8211 19.6844 51.4422 20.2635 50.5658L32.596 31.8971C33.1347 31.0817 33.1347 29.7605 32.596 28.9451L27.2977 20.9249Z" fill="#9C32D1"/>
<defs>
<filter id="filter0_f_1145_4" x="0.770508" y="0.28125" width="32.3633" height="32.3633" filterUnits="userSpaceOnUse" color-interpolation-filters="sRGB">
<feFlood flood-opacity="0" result="BackgroundImageFix"/>
<feBlend mode="normal" in="SourceGraphic" in2="BackgroundImageFix" result="shape"/>
<feGaussianBlur stdDeviation="2" result="effect1_foregroundBlur_1145_4"/>
</filter>
</defs>
</svg>
