<svg width="115" height="150" viewBox="0 0 115 150" fill="none" xmlns="http://www.w3.org/2000/svg">
<g filter="url(#filter0_f_1217_2)">
<path d="M47.1415 6.84972L13.6467 35.0692C9.1571 38.8517 9.1571 44.9843 13.6467 48.7667L47.5376 77.3199C52.0272 81.1024 59.3063 81.1024 63.7958 77.3199L97.2907 49.1005C101.78 45.318 101.78 39.1854 97.2907 35.4029L63.3997 6.84972C58.9102 3.06725 51.6311 3.06725 47.1415 6.84972Z" fill="#2EF2FF"/>
</g>
<path d="M1.49861 90.2867C-0.499536 87.7381 -0.499536 83.6089 1.49861 81.0629L22.4185 54.3876C22.7323 53.984 23.1074 53.6632 23.5216 53.4442C23.9359 53.2252 24.3809 53.1123 24.8305 53.1123C25.28 53.1123 25.7251 53.2252 26.1393 53.4442C26.5536 53.6632 26.9286 53.984 27.2424 54.3876L51.6473 85.5087C52.6063 86.7315 53.1464 88.392 53.1464 90.1219V145.643C53.1464 149.517 49.4725 151.458 47.3245 148.716L1.50066 90.2841L1.49861 90.2867ZM93.8465 56.0275C93.3758 55.4222 92.8133 54.9412 92.192 54.6128C91.5708 54.2844 90.9033 54.1152 90.2291 54.1152C89.5548 54.1152 88.8874 54.2844 88.2661 54.6128C87.6449 54.9412 87.0823 55.4222 86.6117 56.0275L63.4267 85.5937C62.4676 86.8165 61.9296 88.4769 61.9296 90.2069V145.591C61.9296 149.465 65.6035 151.406 67.7515 148.667L113.501 90.3201C115.5 87.7716 115.5 83.6423 113.501 81.0937L93.8465 56.0275Z" fill="#9C32D1"/>
<defs>
<filter id="filter0_f_1217_2" x="6.2793" y="0.0117188" width="98.3789" height="84.1445" filterUnits="userSpaceOnUse" color-interpolation-filters="sRGB">
<feFlood flood-opacity="0" result="BackgroundImageFix"/>
<feBlend mode="normal" in="SourceGraphic" in2="BackgroundImageFix" result="shape"/>
<feGaussianBlur stdDeviation="2" result="effect1_foregroundBlur_1217_2"/>
</filter>
</defs>
</svg>
